<svg class="img-fluid" id="outputsvg" xmlns="http://www.w3.org/2000/svg" style="transform: none; transform-origin: 50% 50%; cursor: move; max-height: none;" width="469" height="469" viewBox="0 0 4690 4690"><g id="l7dFESqEOYSIG1smOItHfD1" fill="rgb(0,0,0)" style="transform: none;"><g><path id="pouMBTpu2" d="M2085 4658 c-415 -46 -853 -230 -1189 -498 -472 -376 -790 -956 -855 -1562 -14 -125 -14 -371 0 -496 46 -430 226 -863 499 -1206 376 -472 956 -790 1562 -855 125 -14 371 -14 496 0 430 46 863 226 1206 499 472 376 790 956 855 1562 14 125 14 371 0 496 -46 430 -226 863 -499 1206 -376 472 -956 790 -1562 855 -114 13 -399 12 -513 -1z m1025 -939 c-72 -41 -212 -184 -279 -284 -29 -44 -55 -82 -57 -85 -6 -5 5 281 12 326 4 30 5 31 52 27 27 -2 94 6 162 20 161 35 178 34 110 -4z m625 -130 c152 -182 157 -465 10 -627 -79 -88 -179 -136 -432 -208 -233 -65 -338 -131 -364 -226 -15 -56 -7 -164 15 -207 l18 -34 -32 23 c-44 31 -109 115 -136 176 -77 174 -38 373 98 500 78 72 178 120 363 175 232 69 332 125 376 210 27 54 27 218 0 272 l-19 37 39 -30 c21 -17 49 -45 64 -61z m-1367 -1193 c1204 -1204 1273 -1274 1261 -1294 -8 -12 -20 -24 -28 -27 -10 -4 -426 405 -1288 1267 -700 700 -1273 1278 -1273 1285 0 15 28 43 43 43 7 0 585 -573 1285 -1274z m-768 114 c80 -231 75 -210 47 -210 -23 0 -33 -27 -210 -557 -103 -307 -187 -570 -187 -585 l0 -28 -205 0 c-113 0 -205 3 -205 7 0 3 59 167 131 362 73 196 151 408 174 471 174 471 258 696 262 703 3 4 34 7 70 5 l65 -3 58 -165z m2150 -105 l0 -145 -42 6 c-28 3 -78 -4 -143 -20 -55 -13 -101 -23 -103 -22 -1 2 16 15 37 29 47 31 153 153 208 238 21 32 39 59 41 59 1 0 2 -65 2 -145z"></path></g></g><g id="l6RqSId2Fe88RenLBq0P0j8" fill="rgb(255,255,255)" style="transform: none;"><g><path id="pOq1TH68G" d="M2757 3728 c-4 -40 -10 -162 -13 -270 -6 -179 -5 -198 9 -198 9 0 24 12 34 28 137 221 260 355 386 417 133 66 273 60 383 -16 58 -39 84 -97 84 -183 0 -154 -88 -224 -395 -315 -339 -101 -466 -215 -496 -447 -23 -175 22 -315 136 -429 70 -71 160 -119 252 -136 97 -18 292 -6 413 25 131 35 154 35 186 5 21 -20 27 -21 34 -9 8 13 12 122 15 397 0 26 -5 48 -12 50 -6 2 -45 -48 -87 -111 -95 -144 -200 -253 -281 -292 -53 -25 -71 -28 -150 -28 -97 1 -142 14 -202 60 -62 47 -94 144 -74 222 26 95 132 161 364 226 253 72 353 120 432 208 85 94 125 246 106 402 -18 151 -77 260 -185 348 -156 125 -358 146 -715 73 -69 -14 -133 -23 -143 -19 -10 3 -25 19 -33 35 -26 50 -42 37 -48 -43z"></path><path id="p1DBwgZFPh" d="M1051 3699 c-33 -13 -50 -38 -51 -74 0 -26 144 -174 1277 -1307 719 -719 1287 -1279 1300 -1283 47 -11 92 30 93 85 0 33 -65 100 -1263 1298 -694 695 -1274 1270 -1289 1278 -31 16 -34 16 -67 3z"></path><path id="pDPESqmAB" d="M1370 2688 c-9 -22 -201 -539 -261 -703 -16 -44 -91 -249 -167 -455 l-139 -375 -51 -3 c-50 -3 -75 -23 -54 -44 4 -4 172 -7 373 -6 356 3 364 3 364 23 0 18 -8 20 -78 23 -56 2 -78 6 -75 15 3 7 87 259 188 560 162 484 185 546 195 525 7 -13 34 -86 60 -163 27 -77 111 -318 186 -535 l137 -395 -78 -3 c-52 -2 -82 -7 -90 -17 -25 -30 0 -35 171 -35 l169 0 0 25 c0 24 -3 25 -53 25 l-53 0 -191 547 c-105 302 -227 652 -271 778 l-80 230 -96 3 c-92 3 -97 2 -106 -20z"></path></g></g></svg>
