<svg class="img-fluid" id="outputsvg" xmlns="http://www.w3.org/2000/svg" style="transform: matrix(0.507, 0, 0, 0.507, 0, 0); transform-origin: 50% 50%; cursor: move; max-height: none; transition: transform 200ms ease-in-out 0s;" width="493" height="287" viewBox="0 0 4930 2870"><g id="lCZcPmnf0irJYADTSdGcj2" fill="rgb(40,40,40)" style="transform: none;"><g><path id="pVsyD8A4h" d="M1220 2835 c-522 -89 -936 -436 -1111 -931 -54 -154 -73 -272 -73 -454 0 -176 9 -240 53 -390 37 -124 71 -205 121 -292 l41 -71 -106 -316 c-58 -174 -105 -319 -105 -323 0 -3 143 41 318 100 l318 105 124 -60 c237 -115 377 -148 635 -148 193 0 267 11 428 62 149 47 353 159 460 252 l37 33 -20 27 c-11 14 -28 37 -39 50 l-19 25 -48 -40 c-76 -63 -136 -101 -241 -153 -190 -94 -330 -126 -558 -126 -264 0 -475 59 -679 190 l-53 34 -229 -74 c-126 -41 -230 -75 -231 -75 -1 0 33 103 75 228 l75 228 -51 84 c-64 106 -123 255 -153 385 -29 128 -31 375 -5 500 102 477 439 852 883 980 416 121 840 35 1175 -238 l57 -46 40 47 c23 26 41 49 40 52 0 3 -24 25 -54 49 -258 211 -575 323 -903 320 -70 -1 -161 -7 -202 -14z"></path><path id="paHJExPzD" d="M3285 2815 c-333 -52 -671 -252 -880 -520 -177 -227 -295 -544 -295 -794 0 -56 -2 -61 -21 -61 -22 0 -22 -2 -15 -106 13 -206 61 -396 142 -556 44 -89 41 -86 58 -62 8 10 16 17 18 14 2 -3 31 -45 63 -95 33 -50 102 -133 155 -186 267 -267 625 -419 993 -419 599 0 1127 376 1328 946 54 154 73 272 73 454 0 176 -9 240 -53 390 -37 124 -71 205 -121 293 l-41 70 111 325 c61 180 105 322 98 320 -7 -3 -153 -52 -323 -108 l-311 -103 -134 66 c-148 73 -263 110 -412 132 -116 18 -321 18 -433 0z m490 -144 c152 -33 288 -88 409 -166 l53 -34 229 74 c126 41 230 75 231 75 1 0 -33 -103 -75 -228 l-75 -228 51 -84 c64 -106 123 -255 153 -385 29 -128 31 -375 5 -500 -102 -477 -439 -852 -883 -980 -243 -71 -472 -72 -722 -5 -104 28 -300 126 -396 198 -110 81 -239 218 -313 332 -34 52 -80 113 -102 135 -30 30 -38 43 -29 52 8 8 4 28 -16 80 -37 91 -43 111 -65 230 -20 107 -20 108 14 338 47 323 163 554 388 771 190 184 404 291 676 339 108 19 349 12 467 -14z"></path></g></g><g id="l7U6TVJMilk6mbJ8EixRx9a" fill="rgb(252,225,129)" style="transform: none;"><g><path id="p13hgvipf" d="M1320 2589 c-107 -8 -197 -27 -291 -62 -55 -21 -166 -72 -177 -82 -2 -2 71 -141 163 -308 l166 -305 55 25 c108 49 249 50 358 0 l54 -25 167 305 c92 167 165 306 163 308 -1 1 -34 18 -73 37 -175 87 -363 122 -585 107z"></path><path id="pGjjZ5ymv" d="M1358 1755 c-210 -42 -312 -283 -194 -461 137 -205 449 -169 536 63 82 219 -112 444 -342 398z"></path><path id="pSioQYuym" d="M285 1363 c20 -235 118 -464 278 -655 69 -82 271 -239 286 -222 5 5 85 139 180 299 l172 289 -43 35 c-102 83 -150 160 -172 273 l-11 58 -348 0 -349 0 7 -77z"></path><path id="phl10majk" d="M1846 1388 c-14 -100 -86 -215 -179 -286 l-29 -21 179 -300 178 -299 65 45 c86 60 207 169 215 193 4 11 -8 47 -30 90 -76 152 -125 339 -140 538 l-8 92 -122 0 -122 0 -7 -52z"></path></g></g><g id="l2u1Wcl3SfsECS6OgTEKO2" fill="rgb(159,237,215)" style="transform: none;"><g><path id="pYg8ICEQk" d="M2700 2242 c-60 -60 -31 -137 63 -168 28 -9 87 -34 130 -56 63 -31 77 -42 72 -56 -41 -102 -81 -355 -71 -451 18 -168 54 -275 135 -398 186 -284 565 -453 1073 -479 97 -5 118 -3 148 13 51 26 56 53 49 254 -12 304 -57 544 -143 745 -55 130 -118 225 -204 306 -190 179 -436 233 -733 162 l-66 -15 -89 50 c-103 60 -231 112 -291 119 -37 4 -46 1 -73 -26z m887 -307 c89 -21 147 -51 210 -109 133 -121 207 -273 262 -541 28 -135 57 -455 41 -455 -38 0 -230 24 -290 36 -176 36 -352 108 -461 189 -67 49 -167 169 -201 240 -44 95 -61 192 -54 310 5 86 34 237 49 252 3 2 56 -47 119 -109 118 -118 221 -247 304 -382 50 -81 90 -116 133 -116 30 0 91 61 91 92 0 69 -233 402 -384 548 -45 43 -46 45 -24 52 41 11 142 8 205 -7z"></path></g></g></svg>
