<?xml version="1.0" standalone="no"?>
<!DOCTYPE svg PUBLIC "-//W3C//DTD SVG 20010904//EN"
 "http://www.w3.org/TR/2001/REC-SVG-20010904/DTD/svg10.dtd">
<svg version="1.0" xmlns="http://www.w3.org/2000/svg"
 width="986.000000pt" height="986.000000pt" viewBox="0 0 986.000000 986.000000"
 preserveAspectRatio="xMidYMid meet">
<metadata>
Created by potrace 1.14, written by Peter Selinger 2001-2017
</metadata>
<g transform="translate(0.000000,986.000000) scale(0.100000,-0.100000)"
fill="#000000" stroke="none">
<path d="M7008 7745 c-3 -3 -58 -7 -124 -10 -116 -4 -193 -11 -244 -20 -14 -3
-45 -8 -70 -11 -25 -3 -83 -14 -130 -25 -47 -11 -94 -22 -106 -24 -130 -29
-347 -108 -519 -190 -115 -55 -338 -182 -343 -197 -2 -4 -10 -8 -18 -8 -8 0
-14 -4 -14 -10 0 -5 -7 -10 -15 -10 -8 0 -15 -3 -15 -7 0 -5 -18 -19 -40 -33
-22 -13 -40 -28 -40 -32 0 -4 -4 -8 -10 -8 -10 0 -38 -21 -76 -57 -13 -13 -25
-23 -28 -23 -8 0 -95 -80 -186 -170 -90 -90 -145 -152 -235 -265 -30 -38 -60
-75 -65 -82 -6 -7 -10 -14 -10 -17 0 -8 -64 -101 -72 -104 -5 -2 -8 -10 -8
-18 0 -8 -4 -14 -10 -14 -5 0 -10 -5 -10 -12 0 -6 -10 -22 -21 -34 l-21 -23
-97 97 c-53 54 -123 120 -155 147 -33 28 -64 55 -70 60 -6 6 -36 28 -66 50
-30 22 -61 45 -68 52 -7 7 -17 13 -22 13 -5 0 -15 6 -22 13 -23 21 -77 57 -86
57 -4 0 -28 -34 -53 -77 -24 -42 -51 -88 -59 -102 -8 -14 -69 -116 -135 -226
-160 -267 -153 -256 -172 -292 -9 -18 -20 -33 -25 -33 -4 0 -8 -9 -8 -19 0
-11 -4 -21 -8 -23 -8 -3 -237 -382 -246 -408 -4 -10 11 -27 41 -50 198 -148
341 -386 371 -620 l7 -55 247 -3 c223 -2 248 -4 257 -20 4 -9 11 -84 15 -167
3 -82 8 -160 10 -171 2 -12 7 -39 11 -60 11 -75 16 -99 25 -134 5 -19 12 -50
15 -69 3 -19 8 -38 11 -43 3 -4 7 -17 9 -29 5 -26 44 -157 55 -184 4 -11 23
-58 41 -105 73 -192 215 -460 326 -614 26 -37 53 -75 58 -84 26 -44 186 -221
282 -312 118 -112 137 -129 262 -221 58 -44 111 -84 118 -89 7 -6 17 -10 23
-10 5 0 10 -4 10 -10 0 -5 5 -10 11 -10 6 0 29 -13 53 -29 87 -60 283 -158
491 -246 42 -18 207 -73 236 -79 13 -3 49 -12 79 -20 30 -9 82 -21 115 -27 33
-6 71 -13 85 -16 49 -10 76 -13 175 -20 182 -13 578 -7 670 11 11 2 40 7 65
10 25 3 56 8 70 11 14 3 36 7 50 10 241 46 411 108 762 280 l188 91 273 -91
c149 -50 277 -92 282 -94 6 -2 15 -5 20 -7 6 -2 164 -54 351 -117 394 -130
355 -135 303 38 -36 120 -220 674 -314 943 l-66 194 50 86 c70 123 152 287
160 324 1 4 12 31 25 60 26 60 107 310 121 378 1 3 6 23 13 45 6 22 13 56 16
75 3 19 8 46 12 60 21 89 27 182 28 450 0 228 -6 387 -20 452 -2 13 -7 39 -10
58 -3 19 -7 47 -10 62 -20 124 -121 437 -186 578 -46 100 -92 194 -98 200 -3
3 -13 21 -23 40 -34 63 -52 95 -58 100 -3 3 -16 24 -29 48 -13 23 -27 42 -31
42 -4 0 -11 9 -14 20 -3 11 -12 26 -18 32 -7 7 -24 29 -37 48 -38 56 -131 170
-185 229 -191 207 -365 351 -625 517 -50 31 -245 136 -260 139 -3 1 -26 11
-51 22 -117 55 -363 139 -461 158 -10 2 -22 6 -27 9 -5 3 -26 8 -47 12 -22 3
-59 10 -84 15 -50 11 -70 14 -150 24 -30 4 -66 9 -80 11 -14 2 -80 6 -148 9
-68 2 -127 7 -131 10 -5 2 -10 2 -13 0z m262 -279 c19 -1 55 -7 80 -11 25 -4
54 -9 65 -10 30 -3 93 -15 156 -31 30 -7 66 -16 80 -18 13 -2 24 -5 24 -6 0
-2 13 -5 51 -14 43 -9 240 -79 303 -108 238 -105 400 -207 633 -396 52 -42
239 -235 293 -302 33 -41 62 -77 66 -80 22 -20 219 -328 219 -343 0 -4 13 -28
28 -54 16 -26 29 -51 30 -56 1 -4 16 -37 33 -75 55 -121 99 -242 142 -397 58
-207 71 -324 71 -620 0 -164 -3 -235 -19 -410 -12 -129 -131 -512 -201 -647
-8 -15 -14 -30 -14 -33 1 -15 -160 -298 -172 -303 -5 -2 -8 -9 -8 -16 0 -8 -8
-24 -19 -37 -18 -23 -18 -25 1 -79 10 -30 20 -62 23 -70 2 -8 4 -15 5 -15 1 0
3 -9 5 -20 2 -10 8 -28 13 -40 9 -19 186 -554 187 -565 1 -3 11 -36 24 -73 13
-38 21 -70 20 -72 -2 -1 -47 11 -99 29 -118 40 -113 38 -125 42 -5 1 -28 8
-50 15 -22 7 -42 14 -45 14 -5 1 -482 155 -555 180 -35 12 -43 11 -65 -3 -106
-68 -252 -152 -340 -194 -95 -46 -318 -131 -373 -142 -12 -3 -49 -13 -82 -22
-65 -17 -73 -19 -155 -34 -105 -18 -124 -21 -194 -27 -110 -9 -596 -9 -646 1
-25 4 -54 9 -65 11 -131 19 -386 91 -544 154 -128 52 -391 191 -399 213 -2 4
-8 8 -13 8 -9 0 -65 36 -79 50 -3 3 -32 25 -65 50 -170 126 -376 333 -514 515
-179 236 -287 441 -376 710 -19 58 -72 256 -79 300 -3 17 -8 39 -10 50 -16 82
-42 248 -62 400 -1 11 -5 45 -9 75 -11 82 -13 220 -3 263 4 20 11 54 14 75 3
20 9 55 14 77 5 22 12 56 15 75 14 81 51 208 84 285 16 37 28 70 30 78 0 4 7
22 15 41 8 19 12 54 10 82 -3 45 -1 53 34 90 20 22 48 54 62 70 27 31 162 218
194 269 11 16 23 34 28 40 5 5 39 48 76 95 113 143 314 347 427 433 5 4 21 17
35 28 31 26 177 122 245 161 59 34 371 188 380 188 4 0 21 6 38 14 34 15 145
56 150 55 1 0 14 2 28 6 14 3 34 8 45 10 10 2 19 4 19 5 0 2 7 3 55 13 137 29
218 42 345 53 39 4 71 7 73 9 4 3 369 -4 412 -9z"/>
<path d="M8217 6534 c-1 -1 -45 -4 -97 -7 -52 -4 -117 -9 -145 -12 -100 -11
-120 -14 -125 -16 -3 -1 -9 -1 -13 0 -8 1 -179 -25 -222 -34 -11 -2 -33 -7
-50 -10 -56 -11 -70 -14 -95 -20 -14 -3 -36 -8 -50 -11 -131 -25 -414 -123
-570 -196 -47 -23 -87 -40 -89 -38 -2 1 -7 -2 -10 -7 -3 -4 -31 -21 -61 -37
-65 -34 -225 -143 -295 -200 -140 -115 -311 -314 -381 -441 -6 -11 -25 -45
-42 -75 -65 -117 -137 -326 -156 -455 -4 -23 -9 -52 -11 -65 -23 -119 -23
-353 1 -474 2 -12 6 -41 9 -66 2 -25 9 -70 15 -100 6 -30 13 -65 16 -77 8 -46
33 -152 38 -168 1 -5 6 -23 10 -40 4 -16 15 -51 24 -77 15 -45 15 -49 -2 -67
-23 -25 -229 -127 -356 -176 -52 -21 -108 -46 -125 -58 -40 -28 -86 -78 -80
-88 3 -4 1 -10 -5 -14 -13 -8 -13 -86 0 -120 11 -30 74 -96 105 -113 12 -6 47
-9 80 -6 54 4 86 11 157 36 15 6 30 10 32 9 22 -3 395 177 427 205 8 8 18 14
21 14 3 0 34 16 69 35 60 35 64 36 113 25 166 -36 246 -52 281 -56 22 -3 51
-7 65 -10 46 -10 380 -12 380 -2 0 5 4 7 10 3 22 -13 248 38 356 81 33 13 64
24 69 24 5 0 16 7 26 16 9 8 23 16 31 18 20 3 148 79 148 88 0 4 5 8 11 8 10
0 61 37 122 90 57 49 158 154 200 209 23 31 44 58 47 61 13 13 80 121 80 129
0 5 3 11 8 13 6 3 102 182 103 193 0 2 11 30 24 60 14 31 25 62 25 70 0 8 4
15 8 15 5 0 9 6 10 13 0 6 17 59 36 117 36 104 84 285 105 390 20 99 21 105
25 130 3 14 8 45 11 70 4 25 9 52 10 60 2 8 6 44 10 80 3 36 8 72 10 80 13 53
38 498 37 675 0 209 -17 252 -120 298 -38 17 -68 21 -155 22 -59 0 -109 0
-110 -1z m-13 -509 c-1 -102 -10 -247 -19 -305 -2 -14 -7 -52 -10 -85 -3 -33
-8 -73 -10 -90 -2 -16 -7 -52 -10 -80 -10 -86 -36 -237 -51 -299 -9 -32 -17
-71 -19 -85 -16 -107 -146 -479 -182 -522 -7 -8 -13 -19 -13 -23 0 -5 -17 -36
-37 -70 -114 -189 -298 -377 -445 -452 -27 -13 -50 -24 -53 -24 -3 -1 -24 -9
-47 -19 -108 -45 -254 -68 -415 -65 -59 1 -121 7 -137 13 l-29 12 29 30 c16
17 64 67 107 110 42 43 77 81 77 84 0 3 14 19 30 35 17 16 30 31 30 34 0 2 15
20 33 39 17 20 48 57 67 82 19 26 40 52 45 59 6 6 21 25 33 41 12 17 29 39 38
50 9 11 47 65 85 120 38 55 77 110 86 123 18 25 38 58 49 82 4 8 10 17 14 20
11 9 95 165 92 173 -1 4 2 7 6 7 16 0 34 103 24 131 -13 34 -106 127 -139 140
-34 13 -88 4 -129 -21 -51 -32 -97 -89 -210 -261 -58 -89 -112 -168 -119 -177
-8 -10 -35 -46 -62 -82 -26 -36 -50 -67 -53 -70 -3 -3 -25 -30 -49 -60 -25
-30 -49 -59 -55 -65 -6 -5 -38 -41 -70 -78 -97 -113 -378 -387 -396 -387 -12
0 -37 80 -59 190 -68 335 -57 635 31 848 6 15 12 33 14 40 5 26 70 131 137
222 201 273 438 435 838 575 112 39 336 99 409 110 25 3 59 9 75 12 17 3 41 6
55 8 68 7 137 17 150 20 8 2 46 7 85 10 38 3 70 7 72 8 1 1 26 2 55 2 l53 0
-1 -110z"/>
<path d="M2619 7685 c-2 -2 -40 -6 -84 -9 -117 -9 -160 -15 -260 -37 -49 -11
-98 -22 -108 -24 -77 -17 -280 -89 -382 -135 -54 -24 -251 -118 -335 -159 -52
-25 -99 -44 -105 -42 -5 2 -14 4 -20 5 -12 2 -114 35 -135 43 -8 4 -17 7 -20
8 -20 5 -179 57 -195 64 -28 11 -116 40 -140 46 -21 4 -135 42 -170 55 -23 9
-53 19 -60 20 -3 0 -24 8 -47 16 -24 9 -47 17 -53 18 -5 2 -17 6 -25 9 -8 3
-76 24 -150 47 -74 23 -155 48 -179 56 -70 22 -72 21 -55 -33 8 -27 17 -55 19
-63 2 -8 4 -15 5 -15 1 0 3 -7 5 -15 2 -8 35 -112 75 -230 39 -118 73 -222 75
-230 3 -8 54 -162 115 -342 67 -199 107 -334 103 -345 -4 -9 -24 -45 -44 -79
-40 -65 -126 -233 -154 -299 -99 -235 -192 -576 -212 -779 -14 -139 -7 -643
11 -742 2 -10 7 -41 10 -69 13 -91 74 -320 121 -451 56 -156 191 -435 271
-559 74 -116 207 -294 275 -370 332 -368 739 -637 1209 -798 58 -20 114 -38
125 -40 11 -2 27 -6 35 -9 27 -10 94 -27 129 -33 19 -3 38 -8 42 -10 4 -3 22
-7 40 -10 19 -2 45 -7 59 -10 151 -33 696 -39 825 -9 11 2 34 6 50 8 32 4 97
15 130 21 22 4 33 7 127 29 71 16 273 80 323 101 17 7 55 23 85 35 80 33 283
134 327 164 21 14 43 26 50 26 7 0 13 5 13 10 0 6 4 10 10 10 9 0 249 165 260
179 3 3 27 24 54 45 26 22 59 50 73 64 27 27 34 14 -70 139 l-69 81 -106 -86
c-96 -76 -313 -226 -383 -263 -153 -81 -295 -144 -426 -190 -98 -34 -293 -86
-349 -93 -21 -2 -39 -5 -39 -6 0 -5 -95 -17 -205 -27 -154 -13 -442 -6 -560
13 -108 17 -197 33 -210 38 -8 3 -26 7 -40 10 -88 15 -263 70 -405 129 -365
149 -723 420 -975 737 -11 14 -30 39 -43 55 -13 17 -49 68 -80 115 -31 47 -61
90 -67 97 -5 7 -10 14 -10 17 0 3 -17 33 -37 68 -21 35 -38 65 -38 68 -1 3
-22 48 -47 100 -79 164 -103 227 -173 460 -13 43 -43 178 -51 230 -25 161 -24
586 2 792 17 142 96 410 166 568 16 36 29 66 29 68 -4 13 128 259 201 372 l35
55 -60 185 c-32 102 -63 194 -67 205 -7 17 -31 87 -35 105 -1 3 -4 12 -8 20
-11 27 -127 385 -127 392 0 7 14 4 55 -11 11 -5 85 -29 165 -54 80 -26 256
-83 393 -128 136 -44 255 -82 265 -84 9 -2 25 -6 35 -10 10 -4 17 -3 17 4 0 6
7 11 15 11 8 0 15 5 15 10 0 6 4 10 9 10 5 0 47 24 94 54 47 29 121 71 164 92
43 21 80 41 83 44 11 12 281 113 335 125 11 3 56 14 99 24 44 11 96 23 115 26
20 3 47 7 61 10 51 9 107 16 170 22 97 9 513 9 604 0 215 -21 417 -71 621
-156 11 -4 99 -47 195 -94 189 -93 337 -186 469 -297 46 -38 87 -70 92 -70 9
0 27 18 51 51 9 13 37 51 62 84 l46 60 -43 39 c-49 45 -235 186 -256 194 -9 3
-42 24 -75 45 -58 39 -341 186 -421 219 -210 88 -491 165 -677 185 -59 6 -624
14 -629 8z"/>
<path d="M1613 6794 c-35 -19 -63 -39 -63 -45 0 -5 -5 -9 -11 -9 -23 0 -226
-169 -348 -290 -225 -223 -469 -654 -547 -969 -2 -9 -11 -43 -19 -76 -9 -33
-17 -69 -19 -80 -6 -37 -18 -110 -23 -130 -2 -11 -6 -45 -8 -75 -4 -55 -16
-166 -18 -185 -1 -7 238 -11 696 -13 383 -1 697 1 698 5 0 5 2 15 4 23 2 8 6
29 10 45 3 17 8 41 11 55 3 14 8 35 10 48 3 12 14 48 26 80 12 31 23 63 24 70
1 8 9 21 16 30 7 10 22 32 32 51 11 19 29 46 40 60 34 42 167 172 225 221 l54
45 -28 45 c-22 35 -215 358 -324 542 -9 15 -47 80 -86 145 -38 65 -74 126 -80
135 -84 145 -189 308 -198 308 -7 0 -40 -16 -74 -36z"/>
<path d="M2690 5464 c-30 -8 -59 -16 -65 -17 -54 -15 -160 -83 -220 -142 -47
-47 -140 -184 -138 -205 0 -3 -1 -9 -3 -15 -32 -88 -40 -223 -20 -338 8 -48
55 -153 94 -209 34 -50 108 -128 121 -128 5 0 14 -7 21 -15 32 -39 177 -98
270 -110 128 -17 238 2 356 61 146 73 260 207 304 356 20 72 27 118 25 184 -2
76 -20 178 -35 199 -4 6 -11 21 -15 35 -20 66 -140 213 -210 257 -51 32 -150
74 -202 87 -78 18 -215 18 -283 0z"/>
<path d="M3240 4109 c-132 -65 -275 -97 -420 -93 -157 4 -221 18 -355 75 -93
40 -115 46 -115 30 0 -5 -47 -94 -103 -198 -57 -103 -123 -224 -147 -268 -23
-44 -50 -93 -60 -110 -10 -16 -33 -59 -52 -95 -40 -73 -83 -153 -129 -237 -18
-32 -57 -107 -88 -168 -31 -60 -60 -112 -64 -114 -18 -7 30 -43 110 -81 46
-22 86 -40 89 -40 2 0 26 -10 52 -21 90 -40 107 -47 203 -78 138 -43 301 -74
464 -87 143 -12 466 -5 525 11 8 2 35 6 60 9 51 7 84 13 108 20 9 3 31 8 49
11 18 3 42 9 55 14 13 5 25 8 28 8 7 0 81 23 105 33 11 5 47 18 80 30 118 42
315 140 315 156 0 18 -98 204 -385 729 -147 270 -268 490 -269 491 0 0 -26
-12 -56 -27z"/>
</g>
</svg>
